<svg xmlns="http://www.w3.org/2000/svg" xmlns:xlink="http://www.w3.org/1999/xlink" width="520.126" height="438.204" viewBox="0 0 520.126 438.204">
  <defs>
    <linearGradient id="linear-gradient" x1="0.916" y1="0.068" x2="0.289" y2="0.985" gradientUnits="objectBoundingBox">
      <stop offset="0" stop-color="#9098a8"/>
      <stop offset="1" stop-color="#aeb4bf"/>
    </linearGradient>
    <linearGradient id="linear-gradient-3" x1="0.948" y1="0.969" x2="0" gradientUnits="objectBoundingBox">
      <stop offset="0" stop-color="#e5e7ea"/>
      <stop offset="1" stop-color="#f8f8f8"/>
    </linearGradient>
    <linearGradient id="linear-gradient-4" x1="-0.376" y1="0.25" x2="0.745" y2="1" gradientUnits="objectBoundingBox">
      <stop offset="0" stop-color="#e5e7e9" stop-opacity="0"/>
      <stop offset="1" stop-color="#e0e2e5"/>
    </linearGradient>
    <linearGradient id="linear-gradient-5" x1="0.767" x2="0.5" y2="1" gradientUnits="objectBoundingBox">
      <stop offset="0" stop-color="#e5e7ea"/>
      <stop offset="1" stop-color="#e1e3e7"/>
    </linearGradient>
  </defs>
  <g id="Group_196" data-name="Group 196" transform="translate(-1192.44 -406.988)">
    <g id="Group_112" data-name="Group 112" transform="translate(1237.714 406.988)">
      <g id="Group_109" data-name="Group 109" transform="translate(0 117.801) rotate(-25)">
        <rect id="Rectangle_40" data-name="Rectangle 40" width="278.741" height="353.526" rx="11" opacity="0.65" fill="url(#linear-gradient)"/>
      </g>
      <g id="Group_194" data-name="Group 194" transform="translate(24.611 130.015) rotate(-25)">
        <rect id="Rectangle_40-2" data-name="Rectangle 40" width="166.932" height="233.017" rx="11" opacity="0.65" fill="url(#linear-gradient)"/>
      </g>
      <g id="Group_110" data-name="Group 110" transform="translate(61.642 31.845)">
        <path id="Path_28" data-name="Path 28" d="M18.468,384.139H284.41a18.468,18.468,0,0,0,18.468-18.468L302.85,68.332,234.517,0H18.468A18.468,18.468,0,0,0,0,18.468v347.2A18.468,18.468,0,0,0,18.468,384.139Z" fill="url(#linear-gradient-3)"/>
        <g id="Group_111" data-name="Group 111" transform="translate(234.546)">
          <path id="Path_29" data-name="Path 29" d="M0,68.332H68.332L0,0Z" transform="translate(0)" fill="#aeb4bf"/>
          <path id="Path_30" data-name="Path 30" d="M0,68.332H68.332L0,0Z" transform="translate(68.332 136.665) rotate(180)" fill="url(#linear-gradient-4)"/>
        </g>
      </g>
    </g>
    <g id="Group_195" data-name="Group 195" transform="translate(1192.44 513.939)">
      <ellipse id="Ellipse_12" data-name="Ellipse 12" cx="29.238" cy="28.468" rx="29.238" ry="28.468" transform="translate(430.874 98.485)" fill="url(#linear-gradient-5)"/>
      <circle id="Ellipse_13" data-name="Ellipse 13" cx="14.619" cy="14.619" r="14.619" transform="translate(490.888 61.553)" fill="url(#linear-gradient-5)"/>
      <circle id="Ellipse_15" data-name="Ellipse 15" cx="14.619" cy="14.619" r="14.619" transform="translate(0 69.248)" fill="url(#linear-gradient-5)"/>
      <ellipse id="Ellipse_14" data-name="Ellipse 14" cx="10.002" cy="10.772" rx="10.002" ry="10.772" transform="translate(461.65 10.772)" fill="#f5f5f6"/>
      <circle id="Ellipse_16" data-name="Ellipse 16" cx="10.002" cy="10.002" r="10.002" transform="translate(20.005 0)" fill="#f5f5f6"/>
    </g>
  </g>
</svg>
