<svg width="20" height="20" viewBox="0 0 20 20" fill="none" xmlns="http://www.w3.org/2000/svg">
<path fill-rule="evenodd" clip-rule="evenodd" d="M18 5.27778V16.5C18 17.3284 17.3284 18 16.5 18H3.5C2.67157 18 2 17.3284 2 16.5V3.5C2 2.67157 2.67157 2 3.5 2H7.6009C7.99873 2 8.38026 2.15804 8.66156 2.43934L9.56066 3.33844C9.84197 3.61974 10.2235 3.77778 10.6213 3.77778H16.5C17.3284 3.77778 18 4.44935 18 5.27778ZM11.0887 8.73547C11.0887 8.73547 10.9023 8.75723 10.6775 8.77162C10.6504 8.77336 10.6227 8.77499 10.5947 8.77646L12.1544 13.4155L12.5849 11.9773C12.5969 11.9389 12.6087 11.9012 12.6203 11.8642C12.7889 11.3253 12.9133 10.9278 12.9133 10.5822C12.9133 10.0486 12.7216 9.67942 12.5575 9.39198C12.5403 9.36405 12.5232 9.33646 12.5063 9.30915C12.3078 8.98877 12.1336 8.70754 12.1336 8.37982C12.1336 8.00361 12.4042 7.65204 12.7938 7.6168C12.815 7.61488 12.8365 7.6139 12.8583 7.6139C12.8709 7.6139 12.8831 7.61492 12.8952 7.61593C12.9015 7.61645 12.9078 7.61698 12.9142 7.61736C12.8957 7.60043 12.8771 7.58365 12.8583 7.56704C12.8461 7.55621 12.8338 7.54544 12.8214 7.53474C12.0649 6.88038 11.0788 6.48431 9.99999 6.48431C8.52614 6.48431 7.22565 7.22354 6.44714 8.35101C6.42923 8.37695 6.41159 8.40309 6.39424 8.42944C6.42638 8.43047 6.45793 8.43138 6.48861 8.43213C6.55466 8.43375 6.61669 8.43467 6.67198 8.43467C7.12328 8.43467 7.82215 8.37982 7.82215 8.37982C8.05469 8.3662 8.08212 8.70794 7.84974 8.73547C7.84974 8.73547 7.6635 8.75723 7.43864 8.77163C7.41152 8.77336 7.38385 8.77499 7.35587 8.77646L8.92733 13.4511L9.87189 10.6187L9.19958 8.77646C8.96705 8.7628 8.74691 8.73547 8.74691 8.73547C8.51427 8.72171 8.54155 8.3662 8.77429 8.37982C8.77429 8.37982 9.48682 8.43467 9.91085 8.43467C10.3621 8.43467 11.0611 8.37982 11.0611 8.37982C11.2938 8.3662 11.3212 8.70794 11.0887 8.73547ZM8.73948 8.81516C8.66034 8.80977 8.59735 8.77442 8.55652 8.72045C8.51655 8.66763 8.50163 8.60224 8.50632 8.54125C8.51101 8.48021 8.53574 8.4179 8.58256 8.37112C8.63079 8.32293 8.69859 8.29525 8.77896 8.29995L8.78043 8.30004L8.78841 8.30066L8.81162 8.30239L8.89783 8.30858C8.97105 8.31371 9.07308 8.32055 9.1883 8.32739C9.41925 8.34109 9.70137 8.35467 9.91085 8.35467C10.134 8.35467 10.4196 8.34108 10.6505 8.32739C10.7657 8.32055 10.8669 8.31371 10.9392 8.30859L11.0242 8.3024L11.047 8.30067L11.0544 8.3001L11.0565 8.29994C11.1357 8.2953 11.2033 8.32133 11.2518 8.36822C11.2991 8.41389 11.3243 8.47522 11.3291 8.53593C11.3339 8.59666 11.3186 8.6612 11.2794 8.71405C11.2392 8.76823 11.1771 8.80556 11.0981 8.81492L11.0951 8.81526L11.087 8.81618L11.0565 8.8195C11.0302 8.82231 10.9925 8.82619 10.9466 8.83049C10.8798 8.83676 10.7955 8.84396 10.7039 8.85007L12.15 13.1513L12.5086 11.9534C12.5198 11.9174 12.5309 11.882 12.5417 11.8473C12.7126 11.3009 12.8333 10.915 12.8333 10.5822C12.8333 10.0706 12.6507 9.71655 12.4887 9.43279C12.4712 9.40429 12.4536 9.37596 12.4361 9.34775C12.2404 9.03248 12.0536 8.73154 12.0536 8.37982C12.0536 7.9926 12.3168 7.62143 12.7126 7.54728C11.9778 6.93367 11.0322 6.56431 9.99999 6.56431C8.57245 6.56431 7.31055 7.27086 6.54316 8.35331C6.58905 8.35419 6.63233 8.35467 6.67198 8.35467C6.89515 8.35467 7.18074 8.34108 7.41157 8.32739C7.52676 8.32055 7.62791 8.31372 7.70025 8.30859L7.78526 8.3024L7.80807 8.30067L7.81542 8.3001L7.81748 8.29994C7.89675 8.2953 7.96426 8.32134 8.01281 8.36823C8.06011 8.4139 8.08525 8.47523 8.09004 8.53593C8.09483 8.59665 8.07962 8.66118 8.04042 8.71403C8.00023 8.76821 7.93812 8.80556 7.85915 8.81492L7.85615 8.81526L7.84809 8.81618L7.81763 8.8195C7.79135 8.82231 7.75365 8.82619 7.70778 8.83049C7.64099 8.83676 7.55669 8.84396 7.46501 8.85007L8.92702 13.1991L9.78716 10.6199L9.14236 8.85301C9.04356 8.84634 8.95006 8.83775 8.87796 8.83043C8.83553 8.82613 8.80041 8.82225 8.77585 8.81944L8.74733 8.81611L8.73948 8.81516ZM10.0758 11.1773L8.78079 14.9398C8.80638 14.9474 8.83207 14.9547 8.85786 14.9617C9.22171 15.0615 9.60441 15.1157 9.99999 15.1157C10.4738 15.1157 10.9293 15.0386 11.3557 14.8974C11.3816 14.8889 11.4074 14.8801 11.4331 14.871C11.4217 14.8525 11.4109 14.8329 11.4022 14.8115L10.0758 11.1773ZM11.3217 14.8244L10.078 11.4167L8.88395 14.8859C9.23963 14.983 9.61354 15.0357 9.99999 15.0357C10.4618 15.0357 10.9058 14.9611 11.3217 14.8244ZM13.7869 8.72948C13.7963 8.79875 13.8036 8.87055 13.8085 8.94508C13.8134 9.01845 13.8159 9.09445 13.8159 9.17326C13.8159 9.611 13.734 10.1033 13.4878 10.719L12.1697 14.53C12.2056 14.509 12.2413 14.4875 12.2766 14.4655C13.5004 13.7038 14.3155 12.3473 14.3155 10.7998C14.3155 10.1275 14.1616 9.4913 13.8873 8.9241C13.8554 8.85828 13.822 8.79339 13.7869 8.72948ZM13.8957 9.13566C13.8959 9.14813 13.8959 9.16066 13.8959 9.17326C13.8959 9.62164 13.8118 10.1235 13.5627 10.7469L12.3187 14.3437C13.473 13.5869 14.2355 12.2826 14.2355 10.7998C14.2355 10.2089 14.1144 9.64645 13.8957 9.13566ZM6.05308 9.26302C5.86716 9.73948 5.76444 10.2575 5.76444 10.7998C5.76444 12.4039 6.65626 13.7998 7.97138 14.5187L6.05308 9.26302ZM6.01206 9.15063C5.8015 9.65882 5.68444 10.2155 5.68444 10.7998C5.68444 12.4664 6.62929 13.9123 8.01246 14.6313C8.04696 14.6492 8.08173 14.6667 8.11676 14.6837L6.05813 9.04353C6.04231 9.07899 6.02695 9.11469 6.01206 9.15063ZM5.12002 10.7998C5.12002 8.10899 7.30909 5.92 9.99999 5.92C12.6908 5.92 14.88 8.10899 14.88 10.7998C14.88 13.4907 12.6908 15.68 9.99999 15.68C7.30909 15.68 5.12002 13.4907 5.12002 10.7998ZM5.20002 10.7998C5.20002 8.15318 7.35327 6 9.99999 6C12.6467 6 14.8 8.15318 14.8 10.7998C14.8 13.4466 12.6467 15.6 9.99999 15.6C7.35327 15.6 5.20002 13.4466 5.20002 10.7998ZM9.99999 6C7.35327 6 5.20002 8.15318 5.20002 10.7998C5.20002 13.4466 7.35327 15.6 9.99999 15.6C12.6467 15.6 14.8 13.4466 14.8 10.7998C14.8 8.15318 12.6467 6 9.99999 6ZM10.6775 8.77162C10.9023 8.75723 11.0887 8.73547 11.0887 8.73547C11.3212 8.70794 11.2938 8.3662 11.0611 8.37982C11.0611 8.37982 10.3621 8.43467 9.91085 8.43467C9.48682 8.43467 8.77429 8.37982 8.77429 8.37982C8.54155 8.3662 8.51427 8.72171 8.74691 8.73547C8.74691 8.73547 8.96705 8.7628 9.19958 8.77646L9.87189 10.6187L8.92733 13.4511L7.35587 8.77646C7.38385 8.77499 7.41152 8.77336 7.43864 8.77163C7.6635 8.75723 7.84974 8.73547 7.84974 8.73547C8.08212 8.70794 8.05469 8.3662 7.82215 8.37982C7.82215 8.37982 7.12328 8.43467 6.67198 8.43467C6.61669 8.43467 6.55466 8.43375 6.48861 8.43213C6.45793 8.43138 6.42638 8.43047 6.39424 8.42944C6.41159 8.40309 6.42923 8.37695 6.44714 8.35101C7.22565 7.22354 8.52614 6.48431 9.99999 6.48431C11.0788 6.48431 12.0649 6.88038 12.8214 7.53474C12.8338 7.54544 12.8461 7.55621 12.8583 7.56704C12.8771 7.58365 12.8957 7.60043 12.9142 7.61736C12.9078 7.61698 12.9015 7.61645 12.8952 7.61593C12.8831 7.61492 12.8709 7.6139 12.8583 7.6139C12.8365 7.6139 12.815 7.61488 12.7938 7.6168C12.4042 7.65204 12.1336 8.00361 12.1336 8.37982C12.1336 8.70754 12.3078 8.98877 12.5063 9.30915L12.5575 9.39198C12.7216 9.67942 12.9133 10.0486 12.9133 10.5822C12.9133 10.9278 12.7889 11.3253 12.6203 11.8642L12.5849 11.9773L12.1544 13.4155L10.5947 8.77646C10.6227 8.77499 10.6504 8.77336 10.6775 8.77162ZM8.78079 14.9398C8.80638 14.9474 8.83207 14.9547 8.85786 14.9617C9.22171 15.0615 9.60441 15.1157 9.99999 15.1157C10.4738 15.1157 10.9293 15.0386 11.3557 14.8974C11.3816 14.8889 11.4074 14.8801 11.4331 14.871C11.4217 14.8525 11.4109 14.8329 11.4022 14.8115L10.0758 11.1773L8.78079 14.9398ZM13.7869 8.72948C13.7963 8.79875 13.8036 8.87055 13.8085 8.94508C13.8134 9.01845 13.8159 9.09445 13.8159 9.17326C13.8159 9.611 13.734 10.1033 13.4878 10.719L12.1697 14.53C12.2056 14.509 12.2413 14.4875 12.2766 14.4655C13.5004 13.7038 14.3155 12.3473 14.3155 10.7998C14.3155 10.1275 14.1616 9.4913 13.8873 8.9241C13.8554 8.85828 13.822 8.79339 13.7869 8.72948ZM6.01206 9.15063C5.8015 9.65882 5.68444 10.2155 5.68444 10.7998C5.68444 12.4664 6.62929 13.9123 8.01246 14.6313C8.04696 14.6492 8.08173 14.6667 8.11676 14.6837L6.05813 9.04353C6.04231 9.07899 6.02695 9.11469 6.01206 9.15063Z" fill="#006E52"/>
</svg>
