<svg width="1662" height="935" viewBox="0 0 1662 935" fill="none" xmlns="http://www.w3.org/2000/svg">
<rect width="1662" height="935" fill="#F3F9F3"/>
<path d="M762.308 361.853L757.133 368.751L753.685 372.201L746.788 375.994L745.752 379.099C745.752 379.099 742.992 381.86 743.339 383.585C743.685 385.311 743.685 388.415 743.685 388.415C743.685 388.415 738.856 392.899 736.786 394.278C734.716 395.658 731.956 398.763 731.956 398.763C731.956 398.763 730.232 400.833 729.198 401.523C728.163 402.211 726.439 404.282 725.059 406.352C723.678 408.423 722.299 409.801 721.609 410.835C720.92 411.87 718.849 414.285 717.815 418.08C716.781 421.876 714.021 426.359 714.021 426.359L713.33 428.083C713.676 433.948 713.674 434.983 714.366 437.053C715.055 439.122 715.746 438.431 715.055 442.917C714.366 447.4 714.366 449.126 713.676 451.196C712.986 453.264 710.916 457.058 710.228 458.786C709.537 460.51 711.607 463.613 711.607 463.613C711.607 463.613 712.643 468.099 711.952 469.134C711.262 470.17 712.297 472.239 712.297 472.239C712.297 472.239 716.436 474.653 717.817 476.033C719.196 477.413 721.611 479.483 721.956 480.518C722.302 481.554 725.06 486.383 725.405 487.418C725.75 488.452 728.51 492.245 729.199 493.281C729.889 494.317 733.338 498.112 733.338 498.112C733.338 498.112 737.822 501.559 738.858 502.94C739.892 504.319 742.997 505.009 744.03 506.043C745.066 507.078 747.479 506.732 748.858 507.769C750.239 508.804 752.997 507.078 754.378 507.769C755.757 508.459 759.553 507.079 760.587 506.39C761.622 505.7 764.035 503.286 765.761 504.319C767.485 505.352 768.519 504.319 769.9 504.664C771.277 505.009 773.348 503.286 774.727 503.286C776.108 503.286 779.555 501.905 780.59 501.905C781.626 501.905 785.075 499.833 786.456 499.833C787.834 499.833 789.559 498.457 791.283 499.145C793.007 499.833 792.317 497.767 795.422 498.8C798.527 499.833 799.561 498.8 800.595 499.833C801.631 500.869 803.012 499.836 804.046 501.216C805.081 502.593 806.805 503.628 807.149 505.009C807.493 506.39 809.563 507.771 809.563 507.771L811.633 508.114C811.633 508.114 814.395 506.045 815.083 507.426C815.772 508.805 818.877 508.462 818.877 508.462L821.98 511.91L823.016 513.29C823.016 513.29 825.086 518.81 824.74 520.879C824.395 522.948 824.395 527.432 823.361 528.467C822.326 529.503 821.637 533.987 821.637 533.987C821.637 533.987 820.256 535.367 823.361 538.127C826.465 540.889 828.536 543.301 829.57 544.679C830.606 546.06 833.366 549.856 833.707 552.27C834.054 554.684 834.743 556.063 836.124 559.168C837.503 562.273 839.227 562.618 839.572 566.069C839.918 569.518 840.606 569.519 840.262 571.932C839.917 574.347 838.882 574.692 839.917 576.416C840.951 578.142 842.329 581.247 841.987 582.281C841.642 583.316 840.951 587.8 840.951 587.8L840.262 589.871L837.158 595.737L835.088 598.839C834.399 601.253 833.019 603.669 833.364 607.119C833.707 610.568 831.64 610.567 834.399 614.015C837.158 617.467 838.536 621.261 840.262 624.366C841.987 627.47 843.021 630.575 843.365 632.644C843.711 634.715 845.09 635.406 845.78 638.164C846.468 640.925 846.814 642.303 846.814 644.028C846.814 645.752 846.468 650.238 847.16 651.273C847.848 652.307 848.195 655.414 848.54 656.793C848.884 658.174 847.504 658.519 849.574 660.934C851.644 663.348 853.023 664.728 854.403 666.453C855.782 668.179 855.437 667.488 856.473 669.903C857.507 672.317 858.886 673.699 859.233 675.767C859.577 677.836 859.921 683.01 860.957 685.425C861.991 687.841 863.37 690.256 863.37 690.256C863.37 690.256 867.166 692.67 868.545 692.325C869.923 691.98 872.684 688.878 874.754 689.911C876.825 690.946 878.549 689.911 880.273 689.911C881.997 689.911 883.722 687.841 885.447 687.841C887.171 687.841 889.585 685.081 890.967 685.772C892.346 686.46 894.069 685.079 895.794 683.355C897.52 681.632 898.554 680.253 901.657 677.493C904.762 674.732 904.417 674.731 906.486 673.007C908.556 671.281 910.626 667.486 913.04 666.797C915.453 666.107 916.143 663.695 916.833 661.969C917.524 660.243 917.867 659.209 918.903 657.828C919.939 656.45 919.248 658.177 920.973 653.69C922.699 649.204 924.77 647.481 926.494 646.445C928.218 645.411 929.253 643.342 930.287 642.995C931.321 642.649 933.047 644.03 932.357 640.925C931.669 637.821 932.357 633.337 931.669 632.302C930.978 631.265 929.942 634.715 930.289 629.539C930.636 624.366 934.428 619.191 934.428 619.191C934.428 619.191 939.601 612.637 941.326 611.603C943.052 610.568 943.395 609.534 945.812 608.153C948.224 606.775 953.399 603.325 953.399 601.6C953.399 599.874 955.469 595.39 955.469 594.354C955.469 593.319 955.469 592.284 954.781 586.419C954.09 580.557 955.469 581.935 953.4 576.416C951.332 570.897 950.984 563.997 949.606 562.273C948.225 560.547 948.915 556.061 948.915 554.684C948.915 553.304 951.332 549.854 952.366 548.475C953.4 547.094 957.884 541.574 957.884 541.574C957.884 541.574 964.781 533.641 967.196 529.848C969.612 526.052 972.025 522.603 973.749 521.224C975.475 519.844 979.614 516.736 982.027 513.288C984.442 509.84 989.271 503.286 989.617 502.249C989.96 501.216 992.719 497.766 992.719 497.766C992.719 497.766 996.513 493.28 997.204 490.866C997.892 488.451 1001.34 474.997 1000.65 475.687C999.964 476.378 995.823 477.066 994.443 477.411C993.065 477.758 996.514 479.135 986.509 478.447C976.509 477.756 971.335 479.482 971.335 479.482C968.229 478.791 965.816 482.241 964.78 477.411C963.745 472.584 963.054 469.823 960.987 466.373C958.917 462.924 957.536 461.544 954.435 457.058C951.332 452.575 951.673 454.643 948.913 451.196C946.155 447.746 945.464 448.779 943.74 444.296C942.016 439.812 940.637 441.538 938.567 435.328C936.496 429.116 935.117 428.426 934.083 424.978C933.047 421.53 931.669 420.492 930.978 417.388C930.289 414.283 922.357 398.416 921.321 397.38C920.285 396.347 918.561 390.825 918.906 391.861C919.252 392.896 924.081 396.346 924.081 396.346C924.081 396.346 926.839 395.31 927.875 395.31C928.909 395.31 933.048 399.106 933.048 400.484C933.048 401.865 940.295 408.42 942.018 413.249C943.742 418.078 945.815 421.528 946.157 422.907C946.498 424.287 949.951 429.807 951.332 431.878C952.709 433.948 957.193 438.086 957.883 440.157C958.572 442.227 965.128 449.126 965.128 453.61C965.128 458.094 968.229 463.958 968.576 465.337C968.922 466.717 975.128 468.444 975.128 468.444L983.408 466.373C983.408 466.373 995.823 458.438 997.204 458.438C998.582 458.438 1009.62 453.264 1009.62 453.264C1009.62 453.264 1014.1 449.126 1017.21 446.712C1020.31 444.296 1023.76 439.813 1024.45 437.741C1025.14 435.671 1026.52 435.328 1029.28 432.221C1032.04 429.116 1035.83 426.012 1033.42 423.942C1031.01 421.873 1029.62 422.563 1026.18 419.113C1022.73 415.664 1023.07 416.354 1020.66 411.868C1018.24 407.385 1021 402.21 1015.83 407.385C1010.66 412.559 1012.72 413.939 1007.55 414.976C1002.38 416.009 1000.31 419.459 997.892 416.009C995.478 412.559 993.065 414.63 991.683 409.454C990.304 404.28 989.268 403.934 988.924 401.866C988.581 399.796 988.924 399.796 986.165 394.62C983.406 389.446 985.475 381.512 987.199 385.996C988.924 390.481 991.683 391.17 996.168 394.275C1000.65 397.379 1002.72 399.796 1006.86 400.141C1011 400.484 1014.45 400.141 1015.14 400.829C1015.83 401.52 1016.52 400.485 1018.24 401.173C1019.97 401.865 1020.65 400.141 1021.35 402.898C1022.03 405.658 1025.83 406.003 1027.55 407.727C1029.28 409.451 1029.28 408.763 1033.76 409.451C1038.25 410.142 1044.46 410.142 1044.46 410.142L1051.01 409.796L1058.6 410.484C1058.6 410.484 1064.12 413.589 1065.5 413.589C1066.88 413.589 1067.22 417.385 1070.67 419.454C1074.12 421.525 1074.81 421.868 1076.88 424.284C1078.95 426.699 1078.6 427.734 1081.36 430.147C1084.12 432.564 1088.61 429.804 1089.3 428.771C1089.98 427.735 1093.43 426.011 1092.75 428.771C1092.06 431.53 1096.19 430.494 1095.16 437.05C1094.13 443.602 1093.43 441.878 1095.16 446.364C1096.88 450.848 1104.47 464.646 1104.82 468.786C1105.16 472.925 1107.23 471.546 1107.58 475.342C1107.92 479.135 1109.99 480.515 1109.99 483.275C1109.99 486.035 1112.41 486.723 1112.75 488.795C1113.1 490.866 1116.89 489.139 1117.92 488.795C1118.96 488.449 1123.79 483.965 1123.79 483.965C1123.79 483.965 1125.86 483.277 1125.51 479.825C1125.17 476.378 1125.51 477.066 1125.51 471.892C1125.51 466.718 1123.44 466.718 1124.48 461.546C1125.51 456.372 1128.27 453.265 1128.96 450.851C1129.65 448.437 1132.41 444.298 1133.79 443.952C1135.17 443.607 1142.76 439.813 1144.48 437.397C1146.21 434.983 1148.97 432.222 1151.73 429.464C1154.49 426.705 1159.32 423.255 1160.35 424.29C1161.39 425.324 1161.04 424.979 1162.77 424.979C1164.49 424.979 1167.59 426.36 1170.01 426.705C1172.42 427.05 1177.25 432.914 1178.29 436.019C1179.32 439.124 1178.63 438.433 1182.43 442.919C1186.22 447.401 1189.67 444.641 1189.67 450.162C1189.67 455.682 1189.67 455.336 1191.4 457.406C1193.12 459.477 1195.19 453.612 1197.26 454.303C1199.33 454.994 1199.67 453.613 1201.39 459.132C1203.12 464.652 1204.15 464.652 1204.5 470.171C1204.84 475.69 1204.15 470.516 1204.15 474.999C1204.15 479.485 1203.81 479.83 1204.5 483.968C1205.19 488.11 1207.6 489.49 1207.26 490.179C1207.26 490.179 1209.33 484.316 1208.64 480.175C1207.95 476.037 1208.64 470.173 1210.36 468.449C1212.09 466.721 1213.81 464.999 1215.19 469.483C1216.57 473.966 1217.26 470.518 1220.36 475.692C1223.47 480.867 1226.23 479.83 1226.57 482.245C1226.92 484.661 1228.65 485.007 1231.06 487.074C1233.47 489.145 1235.54 486.731 1238.3 484.661C1241.06 482.59 1248.65 475.001 1249 471.895C1249.34 468.792 1252.44 469.48 1246.92 461.549C1241.4 453.615 1241.4 450.854 1235.54 446.025C1229.68 441.196 1226.23 440.851 1230.72 434.641C1235.2 428.431 1237.27 424.293 1240.03 426.019C1242.79 427.743 1247.61 427.396 1247.61 434.298C1247.61 441.196 1246.23 448.785 1251.06 440.506C1255.89 432.227 1258.31 427.398 1256.93 428.78C1255.55 430.16 1260.03 426.02 1260.03 426.02C1260.03 426.02 1260.38 422.915 1266.24 421.536C1272.1 420.153 1273.83 419.465 1275.9 418.431C1277.97 417.395 1283.83 410.495 1284.87 407.391C1285.9 404.286 1288.66 398.767 1287.97 396.353C1287.28 393.937 1283.83 382.211 1283.14 382.554C1282.45 382.9 1282.8 382.9 1278.32 378.071C1273.83 373.242 1270.73 369.792 1270.04 367.721C1269.35 365.651 1267.62 365.306 1269.69 362.547C1271.76 359.789 1272.8 360.133 1273.14 357.718C1273.48 355.304 1276.24 353.234 1271.07 354.959C1265.9 356.684 1269.69 355.651 1265.21 355.306C1260.72 354.959 1249 357.72 1254.86 350.477C1260.72 343.232 1262.44 338.749 1263.48 338.749C1264.52 338.749 1269.69 332.884 1270.03 338.403C1270.38 343.922 1272.45 342.541 1272.79 345.991C1273.14 349.441 1280.04 342.197 1280.04 342.197C1280.04 342.197 1282.45 342.887 1284.18 344.611C1285.9 346.335 1285.9 351.856 1285.9 351.856C1285.9 351.856 1284.52 350.13 1288.32 352.89C1292.11 355.652 1296.25 354.27 1296.25 360.135C1296.25 365.999 1296.25 366.345 1298.66 367.724C1301.08 369.104 1303.49 368.416 1305.56 366.69C1307.63 364.966 1311.08 358.756 1311.08 358.756C1311.08 358.756 1311.42 356.34 1305.91 352.89C1300.39 349.442 1296.94 347.028 1294.87 345.302C1292.8 343.578 1293.49 338.404 1295.56 336.332C1297.63 334.262 1298.66 333.227 1297.97 330.468C1297.28 327.707 1299.01 325.638 1304.18 325.982C1309.36 326.329 1310.39 325.639 1310.39 325.639C1310.39 325.639 1311.43 326.327 1311.43 324.258C1311.43 322.189 1317.98 312.529 1316.25 312.529C1314.53 312.529 1316.6 310.115 1315.56 306.321C1314.53 302.524 1319.01 296.662 1315.22 293.902C1311.43 291.142 1310.39 289.761 1307.98 285.623C1305.56 281.482 1305.9 280.794 1296.94 279.758C1287.97 278.723 1283.83 281.828 1281.76 279.069C1279.69 276.309 1278.66 283.208 1277.28 274.928C1275.9 266.649 1279.35 261.129 1279.35 261.129C1279.35 261.129 1284.87 257.68 1286.25 255.265C1287.62 252.85 1293.14 251.815 1297.63 253.541C1302.12 255.265 1308.67 254.92 1314.19 255.958C1319.71 256.991 1319.36 260.441 1322.12 255.958C1324.88 251.47 1322.12 249.403 1324.19 246.988C1326.26 244.572 1328.67 240.777 1330.4 243.191C1332.12 245.608 1335.58 248.02 1338.33 244.915C1341.09 241.812 1342.13 241.467 1342.13 241.467L1343.5 242.848C1343.5 242.848 1346.61 241.121 1346.61 244.224C1346.61 247.331 1349.71 250.781 1347.99 253.195C1346.26 255.611 1343.85 255.265 1343.85 261.129C1343.85 266.996 1343.85 265.96 1347.64 270.79C1351.44 275.618 1353.85 271.479 1354.54 276.654C1355.23 281.828 1355.92 280.795 1359.72 284.244C1363.51 287.692 1362.82 287.692 1365.58 289.762C1368.34 291.833 1369.72 293.904 1369.72 290.454C1369.72 287.004 1370.06 285.28 1369.72 282.175C1369.37 279.071 1372.48 276.654 1370.41 271.48C1368.34 266.306 1370.06 266.651 1365.92 262.856C1361.78 259.063 1359.02 263.547 1357.65 258.027C1356.27 252.508 1364.2 250.093 1366.27 249.403C1368.34 248.715 1371.44 244.574 1372.13 247.334C1372.82 250.093 1366.96 260.097 1376.96 249.403C1386.96 238.71 1382.48 243.194 1382.48 243.194C1382.48 243.194 1387.65 242.505 1388.69 243.194C1389.72 243.886 1392.49 240.089 1391.45 240.436C1390.41 240.782 1380.41 234.915 1380.41 234.915L1373.17 230.777C1373.17 230.777 1375.58 229.051 1377.31 229.398C1379.03 229.743 1379.38 225.948 1381.1 225.602C1382.83 225.257 1394.55 228.018 1396.97 229.398C1399.38 230.777 1408.01 231.122 1406.97 230.432C1405.94 229.741 1400.42 225.603 1400.07 224.222C1399.73 222.843 1387.66 220.083 1383.86 220.428C1380.07 220.771 1376.62 221.805 1373.52 220.771C1370.41 219.736 1365.93 216.976 1363.51 216.976C1361.1 216.976 1330.75 211.112 1329.37 211.457C1327.99 211.802 1325.92 218.355 1324.88 217.321C1323.85 216.286 1322.12 216.285 1317.29 214.906C1312.47 213.526 1305.91 212.49 1297.29 211.802C1288.67 211.112 1282.8 212.492 1280.39 209.731C1277.97 206.973 1272.8 208.007 1266.94 207.661C1261.07 207.318 1254.18 207.661 1251.07 207.661C1247.97 207.661 1240.73 207.318 1239 206.971C1237.27 206.625 1235.21 204.211 1233.14 203.868C1231.07 203.521 1231.41 202.833 1227.27 202.144C1223.13 201.452 1223.48 196.969 1222.1 200.763C1220.72 204.559 1221.41 203.523 1219.34 204.902C1217.27 206.283 1215.2 209.042 1213.82 209.042C1212.44 209.042 1206.92 209.387 1205.89 208.697C1204.85 208.007 1203.13 207.318 1199.68 207.318C1196.23 207.318 1196.23 207.661 1191.74 206.971C1187.26 206.282 1183.81 206.625 1179.67 204.557C1175.53 202.487 1175.53 201.108 1172.08 201.452C1168.64 201.799 1168.64 200.763 1163.81 200.763C1158.98 200.763 1153.12 203.523 1150.01 203.868C1146.91 204.213 1140.01 203.521 1137.59 202.487C1135.18 201.452 1134.49 199.039 1125.52 200.071C1116.55 201.108 1111.38 201.108 1113.1 198.347C1114.83 195.589 1116.9 192.828 1117.93 192.484C1118.97 192.139 1121.38 190.415 1119.65 189.725C1117.93 189.034 1116.21 188.001 1112.07 187.654C1107.93 187.309 1108.27 189.034 1102.06 188.344C1095.86 187.654 1105.51 185.93 1092.75 186.275C1079.99 186.621 1076.89 187.654 1075.51 187.654C1074.13 187.654 1072.4 184.896 1068.95 189.034C1065.5 193.173 1060.67 195.587 1053.78 195.932C1046.88 196.278 1046.53 195.242 1039.98 197.656C1033.43 200.07 1029.29 196.966 1030.67 202.485C1032.05 208.004 1033.77 210.075 1033.77 211.109C1033.77 212.144 1030.67 219.044 1026.88 214.904C1023.08 210.764 1016.18 194.551 1019.29 205.59C1022.39 216.628 1029.29 220.424 1022.74 222.149C1016.18 223.873 1016.87 221.459 1015.83 220.768C1014.8 220.078 1015.83 215.249 1015.49 212.489C1015.14 209.73 1014.46 208.004 1013.08 206.625C1011.7 205.244 1012.04 203.175 1009.28 202.485C1006.52 201.796 1008.94 200.415 1004.45 200.415C999.97 200.415 996.177 197.655 997.212 203.865C998.244 210.073 999.279 205.935 1002.04 211.799C1004.8 217.663 1009.97 213.523 1006.18 217.663C1002.38 221.802 992.381 220.423 989.966 218.699C987.551 216.973 988.242 219.388 983.756 216.283C979.272 213.178 980.654 210.763 975.481 213.178C970.307 215.594 968.582 220.078 966.511 218.352C964.441 216.627 959.614 220.766 957.889 218.699C956.163 216.628 949.264 216.628 947.887 218.699C946.506 220.768 942.367 220.423 936.504 223.183C930.641 225.942 932.363 223.526 925.121 229.392C917.876 235.255 913.737 240.085 911.325 236.29C908.91 232.497 895.802 225.942 900.977 224.906C906.152 223.871 908.565 221.802 911.325 224.216C914.085 226.63 918.57 225.942 919.257 224.216C919.946 222.49 923.053 220.766 918.912 218.697C914.773 216.627 914.428 218.006 907.876 215.592C901.322 213.177 907.876 213.868 898.907 212.487C889.939 211.108 886.143 210.418 883.73 209.728C881.318 209.039 877.867 209.728 874.419 209.384C870.968 209.039 868.556 208.349 865.45 208.694C862.347 209.039 860.623 208.349 856.482 211.454C852.341 214.559 849.237 215.939 846.479 218.352C843.72 220.766 836.478 225.597 834.408 227.323C832.337 229.047 825.094 234.566 824.404 236.636C823.715 238.707 825.094 240.431 822.334 241.81C819.574 243.19 816.816 243.19 814.746 243.535C812.675 243.879 814.746 240.43 812.675 243.879C810.607 247.329 811.296 259.748 813.02 258.022C814.744 256.297 813.71 250.779 821.298 255.955C828.887 261.127 833.717 260.438 833.37 265.267C833.026 270.096 838.544 269.751 839.233 270.787C839.923 271.82 843.372 269.406 843.372 269.406C843.372 269.406 850.961 264.577 850.961 262.163C850.961 259.748 855.789 254.229 855.789 254.229C855.789 254.229 852.338 252.505 852.338 249.055C852.338 245.607 853.376 244.569 854.064 241.119C854.753 237.671 850.27 241.121 860.618 234.564C870.963 228.011 871.654 232.497 871.654 232.497C871.654 232.497 873.032 233.876 871.308 235.945C869.584 238.016 866.479 243.536 865.79 244.224C865.099 244.915 868.894 250.434 870.617 250.434C872.342 250.434 875.792 249.053 877.862 249.398C879.932 249.745 883.38 248.365 884.415 249.055C885.451 249.745 887.864 251.814 886.139 253.539C884.415 255.264 880.619 257.333 877.862 256.644C875.101 255.956 870.962 251.124 873.377 258.024C875.792 264.924 873.032 266.648 870.962 266.303C868.894 265.958 864.409 262.51 865.099 267.684C865.79 272.856 860.616 276.306 859.581 276.306C858.545 276.306 856.477 275.961 856.477 275.961C856.477 275.961 853.371 275.615 851.649 275.615C849.923 275.615 846.474 277.339 845.44 278.72C844.404 280.099 843.024 279.066 841.301 279.066C839.577 279.066 841.301 276.996 837.851 276.306C834.403 275.617 832.333 274.927 830.264 276.306C828.194 277.686 825.091 278.375 823.71 277.341C822.331 276.306 824.401 273.889 821.64 275.272C818.881 276.651 816.811 280.446 815.777 280.792C814.742 281.135 818.882 280.792 814.742 281.135C810.603 281.482 808.88 282.518 806.809 283.206C804.739 283.897 807.499 288.035 803.705 289.415C799.91 290.794 802.672 287.69 798.876 290.794C795.082 293.901 794.391 296.659 793.013 297.004C791.632 297.35 791.979 298.039 788.874 298.383C785.769 298.728 786.116 299.073 784.389 299.418C782.665 299.763 784.735 300.454 780.941 299.763C777.145 299.073 774.387 300.454 775.076 301.833C775.766 303.213 788.528 307.007 778.871 306.662C769.213 306.318 772.318 308.042 774.387 309.421C776.457 310.801 777.49 312.18 778.526 312.526C779.562 312.871 781.284 317.012 781.284 317.012C781.284 317.012 784.044 316.666 782.32 319.081C780.596 321.497 783.01 322.186 781.284 325.291C779.56 328.396 779.56 326.326 778.181 327.015C776.802 327.704 774.731 330.121 770.936 328.05C767.142 325.979 764.385 324.945 759.899 324.602C755.416 324.255 758.519 323.567 755.416 325.979C752.311 328.396 751.621 331.155 751.968 334.259C752.312 337.362 752.657 341.503 751.621 343.574C750.587 345.643 750.587 347.713 751.275 350.818C751.966 353.922 754.036 355.304 754.036 355.304C754.036 355.304 758.865 355.992 759.899 356.339C760.934 356.684 763.004 355.649 765.762 357.372C768.522 359.097 771.282 359.789 773.006 357.718C774.73 355.649 781.629 353.234 783.701 351.165C785.769 349.094 787.149 348.406 786.114 346.335C785.08 344.265 788.184 339.091 789.908 338.056C791.632 337.022 795.427 335.986 795.427 335.986L799.566 329.777C799.566 329.777 803.015 325.981 804.739 326.327C806.463 326.672 816.12 330.124 815.432 325.639C814.742 321.153 816.122 319.774 817.156 321.498C818.19 323.222 820.95 322.533 820.95 322.533C820.95 322.533 822.329 321.844 823.364 322.879C824.398 323.912 825.777 328.399 827.848 329.432C829.918 330.468 831.642 331.503 833.022 332.191C834.402 332.882 835.782 332.191 838.542 334.606C841.3 337.022 844.06 338.403 844.404 339.436C844.751 340.47 847.165 342.886 847.165 342.886C847.165 342.886 849.579 343.575 848.889 344.956C848.199 346.335 844.752 350.477 843.026 351.165C841.301 351.854 836.818 350.473 838.542 351.854C840.265 353.234 842.681 354.959 843.716 353.923C844.751 352.889 851.303 345.989 851.303 345.989C851.303 345.989 850.958 346.334 851.303 344.263C851.649 342.196 851.302 339.781 853.028 340.815C854.752 341.851 855.788 343.23 856.477 341.851C857.167 340.47 857.857 341.161 856.131 340.127C854.406 339.091 850.268 333.227 848.198 332.882C846.128 332.536 840.953 329.086 840.953 329.086C840.953 329.086 839.92 328.051 837.505 325.293C835.09 322.533 834.402 323.222 833.709 320.807C833.021 318.393 830.949 315.288 834.745 315.978C838.541 316.667 840.953 319.081 844.402 321.152C847.852 323.222 847.163 323.91 850.267 325.981C853.37 328.051 853.718 330.122 856.13 329.777C858.543 329.432 861.304 331.157 861.304 334.262C861.304 337.367 861.993 340.815 862.682 341.506C863.373 342.197 865.44 343.577 866.132 344.956C866.821 346.335 868.202 349.785 869.235 351.165C870.271 352.544 871.305 353.58 872.339 355.306C873.374 357.03 873.718 354.959 874.753 355.651C875.789 356.34 877.168 355.994 877.168 354.615C877.168 353.235 877.511 350.82 877.511 350.82C877.511 350.82 882.343 349.441 880.964 348.749C879.583 348.06 875.442 343.92 875.789 342.541C876.134 341.161 875.789 338.403 877.511 338.748C879.237 339.091 880.962 342.196 884.756 339.436C888.551 336.675 893.034 335.296 891.654 339.436C890.276 343.575 892.002 344.263 891.654 348.749C891.31 353.235 893.036 351.854 895.451 354.27C897.865 356.685 899.588 357.031 901.312 357.72C903.038 358.411 905.796 358.066 908.558 358.411C911.317 358.756 913.041 357.375 915.456 358.066C917.868 358.756 923.388 357.72 924.424 358.411C925.46 359.1 929.599 357.031 929.942 359.445C930.287 361.861 931.668 359.1 930.633 364.619C929.599 370.138 928.218 373.933 928.218 373.933C924.424 381.178 923.045 382.903 921.319 383.248C919.597 383.593 918.561 384.628 915.458 384.283C912.353 383.936 908.559 384.283 904.075 383.248C899.592 382.212 891.312 384.283 887.864 382.212C884.415 380.143 879.586 381.867 877.514 379.453C875.445 377.038 871.998 377.383 870.617 376.004C869.238 374.624 868.548 370.831 868.548 376.35C868.548 381.87 865.443 382.214 864.754 384.974C864.063 387.733 865.787 386.353 861.993 386.008C858.198 385.662 857.164 387.733 851.646 383.595C846.126 379.455 843.368 379.455 840.609 377.729C837.848 376.004 835.09 380.833 832.331 375.315C829.572 369.795 825.777 374.279 825.432 369.795C825.088 365.309 825.433 365.657 825.777 362.897C826.125 360.137 829.916 357.723 828.192 356.688C826.467 355.654 827.846 353.928 825.432 354.964C823.017 355.999 819.57 356.343 816.81 357.378C814.05 358.414 823.017 357.378 809.566 358.414C796.115 359.448 792.319 360.828 792.319 360.828C792.319 360.828 791.284 360.138 789.559 361.517C787.835 362.897 785.42 364.967 783.006 363.933C780.593 362.897 779.212 363.242 777.143 363.588C775.073 363.933 773.696 361.864 771.281 363.588C768.865 365.311 766.107 366.002 765.071 365.311C763.999 364.606 762.267 361.847 762.267 361.847L762.308 361.853Z" fill="white"/>
<path d="M993.057 588.832C992.023 592.628 988.229 598.145 988.229 598.145L981.328 601.595C981.328 601.595 978.918 603.666 977.536 604.01C976.156 604.354 972.707 606.081 972.707 606.081C972.707 606.081 969.604 605.39 970.637 608.493C971.671 611.598 972.017 615.395 971.671 616.428C971.328 617.464 971.328 619.534 971.328 622.294C971.328 625.053 970.293 628.501 968.568 629.191C966.844 629.882 965.119 630.572 965.463 632.987C965.81 635.403 965.81 642.646 965.81 642.646L970.295 649.546C970.295 649.546 971.674 648.511 974.434 648.511C977.191 648.511 979.952 646.099 979.952 646.099C979.952 646.099 983.058 646.785 982.711 642.994C982.366 639.197 984.093 634.715 983.745 633.679C983.402 632.644 986.851 628.158 986.851 627.125C986.851 626.089 990.3 621.263 990.3 619.536C990.3 617.812 992.714 615.051 993.059 612.984C993.404 610.912 993.748 606.084 994.438 604.705C995.129 603.325 995.474 601.944 995.474 600.565C995.474 599.186 995.474 596.426 995.474 596.426L993.022 588.824L993.057 588.832Z" fill="white"/>
<path d="M1263.13 635.407C1262.09 636.785 1261.4 651.621 1260.71 653.345C1260.02 655.069 1258.64 664.039 1259.34 666.107C1260.02 668.179 1261.06 675.767 1260.37 678.182C1259.68 680.596 1260.72 688.186 1258.99 687.841C1257.27 687.494 1256.58 688.187 1256.58 689.22C1256.58 690.256 1258.99 692.324 1258.99 692.324C1258.99 692.324 1263.13 692.325 1264.85 691.979C1266.58 691.634 1270.03 689.908 1272.79 689.908C1275.55 689.908 1277.27 687.838 1279.69 687.838C1282.1 687.838 1287.28 686.115 1288.65 686.803C1290.03 687.491 1292.1 682.664 1294.52 683.7C1296.93 684.734 1302.11 681.284 1304.52 681.284C1306.93 681.284 1307.97 677.488 1310.73 678.181C1313.49 678.87 1318.66 676.801 1321.08 677.833C1323.49 678.87 1327.29 674.384 1329.01 677.833C1330.74 681.284 1335.91 682.664 1335.91 684.388C1335.91 686.112 1335.56 689.908 1335.56 689.908L1339.7 689.562C1339.7 689.562 1346.25 685.422 1347.29 685.422C1348.32 685.422 1350.74 681.974 1350.74 683.7C1350.74 685.422 1348.67 689.22 1347.98 690.943C1347.29 692.668 1348.67 694.739 1348.67 694.739C1348.67 694.739 1352.12 696.463 1350.74 699.567C1349.36 702.672 1351.08 701.984 1350.74 704.396C1350.39 706.811 1350.74 705.775 1352.12 707.155C1353.5 708.535 1355.91 710.954 1357.98 710.606C1360.05 710.26 1360.74 708.192 1362.47 709.227C1364.19 710.261 1367.64 709.572 1368.67 710.952C1369.71 712.33 1362.12 715.78 1375.23 709.918C1388.33 704.051 1389.71 702.672 1391.44 700.601C1393.17 698.532 1395.23 696.463 1396.61 695.082C1397.99 693.703 1396.96 694.048 1401.09 690.943C1405.23 687.839 1405.23 689.219 1409.03 683.353C1412.82 677.491 1415.58 675.421 1416.27 674.384C1416.96 673.348 1418.34 673.005 1418.69 668.863C1419.03 664.725 1421.79 660.93 1421.79 659.55C1421.79 658.173 1422.83 656.104 1422.48 653.687C1422.14 651.271 1423.86 647.824 1421.79 644.375C1419.72 640.923 1422.83 639.547 1419.72 638.163C1416.62 636.784 1414.55 637.475 1413.86 635.059C1413.17 632.644 1410.41 632.989 1409.37 626.435C1408.34 619.882 1404.2 619.189 1404.2 619.189C1404.2 619.189 1400.06 617.465 1401.09 616.777C1402.13 616.086 1402.47 611.255 1402.13 609.876C1401.79 608.496 1401.79 605.391 1400.75 603.324C1399.72 601.252 1399.03 598.495 1397.99 596.078C1396.96 593.664 1395.23 592.973 1394.54 590.214C1393.85 587.455 1392.82 586.418 1392.47 585.73C1392.13 585.04 1391.44 581.592 1390.75 585.383C1390.06 589.178 1388.68 596.421 1388.68 596.421C1388.68 596.421 1385.92 602.288 1384.88 604.012C1383.85 605.735 1382.81 610.221 1381.09 609.874C1379.36 609.529 1378.33 611.601 1376.95 611.253C1375.57 610.907 1373.5 611.6 1372.47 610.565C1371.43 609.529 1368.67 606.771 1367.29 606.424C1365.91 606.081 1364.88 603.322 1363.84 603.322C1362.81 603.322 1361.08 600.905 1361.43 599.526C1361.77 598.147 1362.12 595.043 1362.46 593.662C1362.81 592.283 1364.88 589.176 1364.88 589.176C1364.88 589.176 1364.88 587.107 1363.15 587.107C1361.43 587.107 1361.08 587.107 1357.29 586.761C1353.5 586.415 1352.46 586.071 1351.08 586.071C1349.7 586.071 1352.46 585.382 1348.67 586.416C1344.87 587.454 1343.15 590.212 1340.73 592.628C1338.32 595.042 1340.39 594.35 1338.32 595.042C1336.25 595.733 1336.6 593.316 1335.22 597.112C1333.84 600.907 1335.91 601.94 1334.87 602.631C1333.83 603.322 1326.59 600.217 1326.59 600.217C1326.59 600.217 1328.32 599.871 1326.94 598.147C1325.56 596.421 1324.18 594.009 1322.11 595.043C1320.04 596.078 1318.31 596.769 1316.94 598.493C1315.56 600.217 1315.56 601.597 1314.52 602.976C1313.49 604.355 1310.73 604.355 1310.38 605.736C1310.04 607.117 1310.04 610.565 1309 610.91C1307.97 611.257 1307.63 609.534 1306.59 609.188C1305.56 608.843 1305.9 606.083 1305.21 607.808C1304.52 609.532 1303.83 609.186 1302.8 611.946C1301.76 614.706 1301.42 617.122 1300.38 617.467C1299.35 617.813 1300.38 618.156 1297.28 619.882C1294.18 621.606 1293.48 621.606 1289 623.677C1284.52 625.747 1285.55 625.747 1282.45 626.091C1279.35 626.437 1278.65 627.472 1276.59 627.816C1274.51 628.161 1273.14 628.505 1271.07 630.575C1269 632.646 1267.27 633.334 1265.89 633.68C1264.51 634.026 1263.2 635.381 1263.2 635.381L1263.13 635.407Z" fill="white"/>
<path d="M1283.48 499.144C1282.1 501.216 1277.62 507.423 1275.89 507.769C1274.17 508.112 1272.44 509.84 1271.06 509.493C1269.68 509.147 1266.58 509.493 1265.54 513.978C1264.51 518.462 1262.78 520.877 1261.75 520.531C1260.71 520.186 1263.47 527.084 1257.61 524.327C1251.75 521.567 1253.82 526.743 1253.13 528.124C1252.44 529.501 1254.16 533.298 1254.5 534.677C1254.85 536.056 1255.88 538.472 1257.26 540.539C1258.64 542.61 1259.68 545.024 1262.09 544.337C1264.51 543.644 1272.09 544.337 1272.09 544.337C1272.09 544.337 1274.86 545.372 1276.58 545.372C1278.3 545.372 1278.65 544.682 1279.68 544.682C1280.72 544.682 1282.79 541.23 1282.44 540.887C1282.1 540.539 1281.06 539.506 1283.13 537.436C1285.2 535.365 1287.62 534.677 1287.96 532.262C1288.31 529.848 1287.27 529.848 1288.31 528.465C1289.34 527.086 1291.75 527.434 1291.07 526.052C1290.38 524.672 1291.75 525.017 1290.38 522.255C1289 519.497 1287.27 518.461 1288.65 515.011C1290.03 511.562 1291.41 510.871 1291.07 508.802C1290.72 506.73 1292.79 506.042 1290.38 503.626C1287.96 501.214 1286.93 500.523 1285.2 499.83L1283.5 499.125L1283.48 499.144Z" fill="white"/>
<path d="M1351.09 533.643C1352.47 533.298 1357.3 529.848 1357.64 536.058C1357.99 542.266 1358.33 540.541 1360.4 543.991C1362.47 547.441 1363.85 548.478 1366.26 546.752C1368.68 545.025 1371.44 545.025 1372.13 541.923C1372.82 538.818 1372.82 538.818 1374.89 538.818C1376.96 538.818 1377.65 538.473 1378.68 539.856C1379.72 541.232 1380.4 539.853 1384.89 542.268C1389.37 544.683 1393.17 543.991 1395.93 546.408C1398.69 548.821 1400.07 548.48 1403.86 549.857C1407.66 551.237 1405.93 549.168 1409.38 552.962C1412.83 556.756 1411.45 557.79 1413.17 559.516C1414.9 561.24 1416.28 558.135 1415.59 562.275C1414.9 566.414 1410.07 562.275 1417.31 568.137C1424.56 574.004 1425.59 575.04 1428 576.762C1430.42 578.488 1432.15 580.559 1430.08 580.559C1428 580.559 1421.45 580.559 1420.77 579.523C1420.07 578.488 1416.97 577.797 1414.9 575.383C1412.83 572.971 1408.35 571.243 1407.32 569.174C1406.28 567.102 1404.9 566.414 1403.18 566.414C1401.45 566.414 1399.73 568.483 1397.31 570.899C1394.9 573.312 1395.93 569.521 1392.83 570.554C1389.72 571.59 1386.28 570.207 1384.55 568.828C1382.82 567.449 1383.17 565.38 1380.41 566.414C1377.65 567.449 1375.93 566.759 1376.96 564.69C1378 562.618 1377.31 559.859 1377.31 559.859C1377.31 559.859 1378.34 556.409 1375.93 555.721C1373.52 555.033 1373.52 552.618 1371.1 551.925C1368.68 551.237 1364.89 549.511 1364.89 549.511C1364.89 549.511 1364.55 549.511 1363.51 549.166C1362.48 548.82 1362.48 548.82 1359.72 548.132C1356.96 547.441 1354.89 548.129 1353.51 546.406C1352.13 544.682 1352.82 542.266 1352.82 542.266C1352.82 542.266 1358.34 542.956 1352.82 538.817L1347.3 534.679C1347.3 534.679 1347.99 534.332 1347.64 533.643C1347.29 532.938 1351.09 533.627 1351.09 533.627L1351.09 533.643Z" fill="white"/>
<path d="M1195.87 504.998C1195.87 504.998 1197.59 506.725 1200.35 506.379C1203.11 506.033 1205.18 511.898 1206.91 513.967C1208.63 516.037 1209.67 517.072 1213.46 519.487C1217.25 521.901 1216.91 517.417 1222.08 524.661C1227.26 531.905 1224.84 527.422 1227.26 531.905C1229.67 536.394 1231.05 538.806 1232.43 539.843C1233.81 540.878 1234.85 543.635 1235.19 544.671C1235.54 545.706 1237.95 548.809 1237.95 549.845C1237.95 550.88 1238.64 553.64 1236.57 556.054C1234.5 558.469 1232.78 558.814 1232.78 558.814C1232.78 558.814 1228.64 556.743 1227.26 554.674C1225.88 552.605 1224.15 550.88 1221.74 546.742C1219.32 542.601 1216.56 538.116 1215.18 536.047C1213.81 533.975 1211.74 531.905 1210.7 529.837C1209.67 527.765 1206.91 521.558 1205.53 520.867C1204.15 520.176 1203.8 518.108 1201.39 515.693C1198.98 513.277 1199.32 511.208 1198.28 509.829C1197.25 508.45 1194.84 505.341 1194.84 505.341L1195.85 505.004L1195.87 504.998Z" fill="white"/>
<path d="M525.016 774.077C522.601 772.698 517.428 770.283 515.704 768.903C513.98 767.524 508.806 759.931 508.806 759.931L505.01 752.687C505.01 752.687 500.528 747.168 501.563 745.099C502.597 743.028 504.667 741.649 504.667 740.614C504.667 739.58 506.736 736.818 505.01 735.785C503.287 734.749 503.287 734.406 502.251 731.301C501.216 728.197 501.216 725.434 499.837 724.746C498.456 724.058 497.422 719.572 496.043 719.227C494.664 718.881 493.283 716.467 493.283 716.467L491.213 688.524C491.213 688.524 490.522 675.762 489.834 673.001C489.142 670.242 490.868 664.378 489.142 659.203C487.419 654.028 489.489 647.82 488.453 645.749C487.419 643.679 489.142 637.817 488.108 632.298C487.074 626.779 492.247 619.879 488.108 617.81C483.969 615.738 487.074 612.634 483.624 612.634C480.176 612.634 477.761 610.909 474.657 608.496C471.552 606.081 465.688 601.595 463.964 599.869C462.24 598.147 456.72 593.661 454.996 592.281C453.272 590.902 451.547 585.037 450.167 583.311C448.788 581.588 448.099 576.414 446.028 573.309C443.958 570.206 441.2 565.032 440.509 563.996C439.819 562.961 432.231 553.992 432.231 553.992L432.92 548.474C432.92 548.474 438.094 545.368 437.404 544.334C436.714 543.298 437.75 542.262 435.334 540.194C432.919 538.122 433.263 534.328 435.334 532.605C437.404 530.878 440.507 525.359 440.507 525.359L445.681 516.736C445.681 516.736 449.821 512.249 449.821 509.145C449.821 506.042 455.684 503.973 452.235 501.213C448.785 498.451 450.511 496.037 449.475 493.966C448.439 491.897 449.13 490.518 452.235 488.448C455.339 486.377 460.857 478.789 460.857 478.789C460.857 478.789 464.996 477.753 466.031 477.753C467.065 477.753 468.791 466.712 471.895 473.957C475 481.201 476.034 477.407 475 482.581C473.964 487.755 476.379 486.722 477.758 485.343C479.137 483.96 477.067 486.377 479.827 480.165C482.585 473.957 481.552 471.888 483.276 473.614C485 475.339 485.69 475.684 488.795 476.719C491.898 477.753 492.934 477.407 493.966 479.477C495.001 481.548 494.658 478.788 500.521 479.824C506.383 480.86 514.662 477.753 513.627 481.201C512.593 484.651 510.523 480.857 515.351 484.651C520.18 488.448 520.871 489.136 523.629 489.827C526.387 490.517 528.803 490.172 532.943 494.311C537.082 498.449 538.116 498.796 539.151 500.863C540.185 502.935 541.909 501.554 543.635 503.623C545.359 505.695 547.774 505.695 550.187 505.695C552.601 505.695 550.187 503.623 553.981 506.385C557.777 509.144 560.535 509.487 562.259 515.008C563.983 520.531 567.433 520.183 564.673 525.704C561.915 531.224 556.396 533.638 558.81 533.293C561.224 532.947 565.709 530.876 567.088 531.223C568.467 531.566 569.157 530.188 571.227 531.223C573.297 532.257 573.642 529.843 573.297 532.257C572.951 534.672 572.951 532.257 572.951 534.672C572.951 537.086 572.261 532.257 576.4 533.293C580.539 534.328 578.124 531.221 582.953 535.707C587.783 540.193 587.783 538.814 589.506 541.227C591.231 543.64 592.955 539.85 593.991 540.883C595.027 541.915 598.13 541.226 601.235 541.917C604.339 542.605 602.269 539.848 607.099 542.952C611.926 546.055 616.756 545.021 617.791 547.781C618.825 550.539 621.586 549.505 622.964 551.231C624.342 552.956 625.033 550.539 626.413 552.956C627.793 555.369 631.933 554.679 631.242 557.093C630.551 559.51 632.275 558.129 631.585 561.577C630.897 565.03 628.481 570.549 626.413 571.927C624.343 573.308 624.345 575.032 622.964 576.756C621.585 578.483 621.93 575.032 620.204 579.861C618.48 584.692 618.825 585.382 617.446 589.864C616.067 594.347 617.101 589.864 616.067 594.349C615.032 598.833 615.722 601.594 614.687 606.769C613.653 611.942 613.998 611.943 613.308 615.738C612.619 619.533 615.032 614.015 611.928 621.946C608.825 629.882 608.48 629.534 607.445 632.986C606.409 636.437 607.79 633.675 603.996 635.746C600.202 637.818 602.272 637.125 597.787 638.506C593.304 639.886 587.785 641.268 586.061 641.611C584.337 641.955 577.438 644.025 579.508 648.163C581.578 652.304 581.578 652.994 579.508 658.17C577.438 663.342 574.335 665.069 574.335 667.482C574.335 669.896 572.954 672.309 572.611 674.035C572.265 675.761 575.714 672.309 571.576 677.485C567.437 682.659 567.093 681.28 565.712 684.385C564.333 687.488 565.712 685.073 564.333 687.488C562.954 689.902 559.504 690.937 559.504 690.937C559.504 690.937 559.847 692.662 558.468 691.973C557.088 691.285 557.434 692.317 552.259 690.937C547.086 689.557 546.396 686.11 545.706 688.523C545.017 690.937 546.051 692.319 549.156 694.733C552.259 697.148 557.434 697.836 556.053 700.253C554.674 702.669 554.674 702.669 553.64 704.048C552.604 705.429 555.019 704.393 552.604 705.429C550.19 706.463 548.81 710.949 547.775 710.949C546.741 710.949 546.05 712.673 544.671 711.984C543.291 711.293 539.843 708.879 539.152 710.258C538.463 711.636 537.082 708.532 537.427 713.362C537.773 718.191 538.463 720.951 536.737 721.987C535.013 723.022 530.873 721.987 530.873 721.987L530.183 720.261L527.77 720.951C527.77 720.951 526.735 725.091 528.459 725.78C530.183 726.47 529.838 727.158 531.562 729.229C533.288 731.299 532.254 735.094 532.254 735.094C532.254 735.094 532.254 736.13 530.53 737.854C528.806 739.578 528.115 740.959 527.77 741.994C527.423 743.028 525.355 747.514 528.459 747.168C531.562 746.821 533.979 745.097 533.979 750.618C533.979 756.137 535.358 754.759 533.634 758.552C531.909 762.347 530.53 762.692 530.185 766.14C529.841 769.59 530.531 769.935 531.221 772.005C531.91 774.076 533.636 773.04 531.91 774.076C530.194 775.057 525.03 774.03 525.03 774.03L525.016 774.077Z" fill="white"/>
<path d="M436.029 493.274L433.616 489.825C433.616 489.825 432.582 487.753 430.856 487.41C429.131 487.067 425.336 482.581 425.336 482.581C425.336 482.581 423.612 481.201 423.612 478.788C423.612 476.372 422.232 472.579 423.266 468.439C424.302 464.301 424.647 459.126 424.302 457.745C423.956 456.366 426.026 456.021 423.612 454.64C421.197 453.261 416.369 452.916 413.264 452.916C410.161 452.916 406.365 453.952 405.676 454.295C404.986 454.64 409.47 443.947 410.159 442.223C410.849 440.499 413.954 432.908 413.954 431.875C413.954 430.839 414.988 430.494 412.919 429.116C410.851 427.735 407.401 427.045 405.331 428.08C403.262 429.116 403.607 426.701 401.883 430.839C400.159 434.98 398.434 439.464 396.363 440.154C394.294 440.845 390.155 442.914 390.155 442.914C390.155 442.914 384.982 442.569 383.257 442.224C381.533 441.879 374.289 438.085 372.91 435.671C371.531 433.255 370.841 428.08 370.841 425.668C370.841 423.252 374.634 416.009 374.289 414.283C373.944 412.559 378.085 405.659 377.738 404.623C377.392 403.589 378.428 400.139 379.462 398.76C380.497 397.38 385.672 395.655 387.051 394.275C388.43 392.894 390.845 391.172 393.259 390.481C395.672 389.789 397.744 389.101 399.468 389.101C401.192 389.101 405.676 385.306 406.365 389.101C407.056 392.894 410.161 391.515 411.885 391.86C413.609 392.206 413.955 393.93 416.714 389.446C419.473 384.96 422.232 383.581 422.232 384.615C422.232 385.651 426.715 384.272 427.405 385.306C428.095 386.341 429.475 384.615 431.889 386.686C434.304 388.756 437.752 389.101 437.407 390.134C437.062 391.169 438.786 391.169 438.786 392.205C438.786 393.239 440.167 389.789 440.167 395.998C440.167 402.208 441.891 406.003 441.891 406.003C441.891 406.003 444.304 411.178 445.339 410.142C446.373 409.108 448.442 406.349 448.442 406.349C448.442 406.349 451.891 404.279 449.478 397.034C447.063 389.791 448.788 387.72 448.099 385.305C447.408 382.89 447.408 381.509 451.547 378.405C455.686 375.302 465.688 368.402 468.103 367.023C470.516 365.643 476.034 361.848 476.034 361.848C476.034 361.848 478.103 360.814 478.449 358.054C478.794 355.295 485.347 350.464 485.693 349.085C486.039 347.706 490.523 344.257 490.523 344.257C490.523 344.257 495.35 341.495 495.005 339.773C494.661 338.049 501.215 334.945 502.249 334.945C503.283 334.945 508.803 336.668 508.803 333.563C508.803 330.459 508.803 329.768 512.253 327.009C515.701 324.251 520.184 320.11 521.91 320.11C523.634 320.11 529.498 317.008 531.912 316.316C534.327 315.625 541.915 312.175 535.016 316.316C528.118 320.454 532.601 318.041 531.222 321.49C529.845 324.939 528.807 329.425 535.361 324.249C541.915 319.075 541.569 318.039 543.984 317.696C546.399 317.351 544.674 318.73 549.847 317.004C555.022 315.28 555.367 314.591 555.367 314.591C555.367 314.591 557.782 312.52 556.401 311.487C555.022 310.451 557.782 309.072 552.607 311.141C547.433 313.211 547.778 313.556 544.329 312.52C540.881 311.486 535.706 311.829 539.5 308.379C543.294 304.931 548.123 303.895 545.018 302.515C541.915 301.136 533.982 302.862 532.948 303.205C531.912 303.55 529.498 302.86 527.428 303.205C525.359 303.55 526.049 300.448 527.428 299.757C528.809 299.065 533.292 296.995 538.811 295.615C544.329 294.236 557.782 293.891 560.885 293.891C563.988 293.891 568.127 294.583 570.542 292.857C572.956 291.133 577.786 288.374 578.475 286.992C579.166 285.612 581.925 283.543 581.925 283.543C581.925 283.543 585.028 280.438 583.304 279.059C581.58 277.679 579.854 274.574 578.475 275.264C577.096 275.954 578.132 280.095 575.372 275.609C572.612 271.126 572.957 270.435 571.578 269.4C570.199 268.366 568.818 269.054 569.854 264.226C570.888 259.397 570.544 257.326 570.544 257.326C570.544 257.326 571.578 253.188 570.544 252.844C569.508 252.497 568.82 251.464 567.096 252.497C565.37 253.532 555.713 258.362 553.644 259.397C551.574 260.432 548.814 255.257 549.849 252.844C550.884 250.427 550.193 251.808 548.814 248.359C547.435 244.909 541.917 244.218 539.847 244.218C537.776 244.218 532.949 241.113 531.569 243.184C530.189 245.253 522.947 251.806 521.565 252.497C520.186 253.188 518.117 246.633 517.083 257.326C516.047 268.023 520.877 271.126 515.359 271.816C509.841 272.505 505.01 275.609 505.01 275.609C505.01 275.609 500.528 275.955 500.528 278.714C500.528 281.476 498.804 288.028 496.732 288.717C494.664 289.408 489.489 288.374 487.765 286.303C486.041 284.233 488.11 276.645 488.11 276.645L491.214 273.54C491.214 273.54 469.14 270.092 469.483 268.711C469.83 267.331 462.931 264.917 462.241 262.847C461.552 260.776 461.205 256.292 461.896 254.568C462.586 252.844 471.898 244.564 476.727 242.84C481.556 241.115 489.834 237.321 492.249 236.63C494.664 235.941 498.801 236.285 500.182 234.561C501.561 232.835 501.906 229.732 501.906 229.732C501.906 229.732 501.216 224.901 502.595 225.591C503.975 226.282 506.39 227.317 506.734 228.351C507.081 229.386 507.081 231.801 509.494 229.039C511.909 226.281 515.014 225.244 517.772 223.867C520.532 222.486 524.67 222.832 527.086 221.453C529.5 220.073 533.639 218.693 533.984 215.243C534.328 211.794 532.949 212.829 531.224 212.482C529.5 212.139 531.913 212.829 526.05 215.588C520.186 218.346 521.911 216.277 517.772 218.346C513.633 220.417 513.287 220.762 512.944 219.037C512.597 217.312 513.633 214.553 513.633 214.553C513.633 214.553 513.98 214.207 511.565 213.519C509.149 212.829 509.149 213.863 508.805 210.76C508.46 207.655 510.529 203.17 507.081 204.55C503.631 205.929 500.528 203.515 498.113 210.413C495.698 217.312 487.42 224.558 485.35 222.832C483.281 221.108 482.936 220.762 481.211 220.762C479.485 220.762 477.072 218.693 473.967 218.348C470.862 218.003 461.549 218.003 459.137 218.348C456.721 218.694 453.963 216.968 451.891 219.039C449.823 221.108 446.719 223.868 446.719 224.904C446.719 225.939 443.615 221.108 442.58 221.454C441.546 221.799 438.785 220.075 435.683 220.075C432.578 220.075 430.508 218.349 429.475 218.349C428.441 218.349 430.508 215.589 429.475 215.244C428.441 214.901 406.019 214.21 406.019 214.21C406.019 214.21 398.777 211.451 396.018 211.796C393.259 212.141 385.672 212.484 379.806 213.52C373.941 214.555 365.318 218.004 362.56 218.349C359.8 218.696 353.592 218.696 352.558 216.97C351.522 215.246 352.903 215.591 351.522 215.246C350.143 214.902 351.179 214.211 348.074 211.797C344.97 209.382 349.455 207.313 343.246 207.313C337.038 207.313 333.244 206.967 327.725 207.313C322.206 207.658 310.825 210.417 309.445 210.072C308.066 209.727 297.028 211.797 295.303 210.763C293.579 209.727 284.955 214.556 283.232 214.211C281.508 213.866 274.954 214.558 273.23 215.592C271.505 216.628 263.227 218.696 265.987 220.421C268.745 222.146 268.4 223.87 268.745 224.906C269.091 225.94 265.987 228.354 265.987 228.354C265.987 228.354 265.295 228.354 261.503 226.975C257.709 225.594 253.569 224.906 251.844 225.94C250.12 226.975 247.015 229.047 247.705 230.426C248.396 231.806 253.223 234.911 253.914 233.875C254.604 232.84 256.329 230.771 258.398 231.116C260.468 231.462 263.573 229.737 260.813 233.186C258.053 236.635 255.638 238.36 253.914 238.707C252.19 239.05 248.051 239.395 244.257 239.741C240.461 240.088 240.806 238.362 237.358 241.812C233.91 245.26 232.53 243.191 231.84 246.986C231.15 250.779 230.461 250.779 231.84 251.815C233.219 252.85 229.08 253.195 232.185 254.229C235.288 255.265 239.082 256.3 238.737 257.333C238.391 258.369 242.187 255.955 240.117 258.712C238.046 261.474 236.669 263.886 240.806 261.127C244.945 258.369 247.359 260.436 250.808 258.712C254.258 256.988 257.707 256.643 259.776 255.264C261.846 253.883 262.88 251.815 265.985 250.778C269.09 249.743 267.019 251.124 267.364 252.848C267.709 254.572 267.364 254.917 269.434 253.536C271.503 252.157 271.503 253.193 274.263 251.467C277.021 249.743 280.126 248.017 282.196 249.052C284.265 250.088 284.955 250.088 286.335 250.088C287.714 250.088 284.611 249.742 287.714 250.088C290.819 250.431 286.335 249.052 296.682 251.467C307.03 253.881 309.79 252.157 310.478 255.952C311.169 259.746 312.549 255.605 314.272 258.021C315.996 260.435 317.032 258.367 318.067 262.505C319.101 266.646 318.067 278.029 317.377 279.408C316.688 280.788 316.343 280.788 316.688 283.893C317.032 286.996 321.171 301.832 319.792 302.865C318.413 303.898 315.308 304.244 315.308 304.244L313.584 310.453C313.584 310.453 310.826 315.627 308.411 318.387C305.996 321.146 302.893 324.597 301.167 327.009C299.443 329.425 298.063 333.566 295.649 335.98C293.236 338.393 291.165 337.359 291.855 342.533C292.545 347.707 291.855 353.226 292.545 357.022C293.236 360.817 294.96 365.991 296.339 368.062C297.718 370.131 298.754 370.131 301.167 371.855C303.582 373.579 306.687 375.651 306.341 377.375C305.996 379.099 306.686 389.795 306.686 389.795C306.686 389.795 308.756 393.244 309.099 397.039C309.445 400.835 311.859 404.628 311.859 404.628L313.929 409.114C313.929 409.114 314.964 409.46 316.344 412.217C317.723 414.978 317.723 414.978 318.068 416.355C318.415 417.738 318.415 417.391 318.415 417.738C318.415 418.081 318.068 411.873 317.379 410.147C316.689 408.423 316.689 406.354 316 404.283C315.31 402.213 316.344 399.797 314.276 396.694C312.207 393.59 312.207 393.244 311.172 390.139C310.138 387.035 308.757 383.585 310.138 382.894C311.517 382.206 312.552 377.722 315.311 382.894C318.07 388.068 318.416 386.69 318.761 390.83C319.104 394.97 320.14 396.35 321.174 398.073C322.209 399.797 324.622 405.664 326.003 408.076C327.382 410.492 326.003 406.697 329.106 411.526C332.211 416.355 332.557 417.39 334.281 421.185C336.005 424.979 337.041 424.979 338.075 427.738C339.11 430.5 338.42 429.809 337.729 432.912C337.039 436.016 338.419 439.467 338.419 439.467C338.419 439.467 343.247 441.191 343.592 442.226C343.937 443.26 348.765 444.984 349.456 446.365C350.146 447.746 354.63 449.469 354.63 449.469C354.63 449.469 358.424 451.884 359.802 452.574C361.182 453.264 365.323 453.955 365.323 453.955C365.323 453.955 368.081 454.646 369.116 454.989C370.15 455.334 373.255 455.334 373.255 455.334C373.255 455.334 376.014 453.265 377.049 453.955C378.083 454.643 380.498 452.574 381.533 454.298C382.567 456.024 384.637 456.024 385.672 457.405C386.706 458.784 387.74 458.784 389.466 460.508C391.191 462.232 392.915 461.888 394.639 463.267C396.363 464.646 397.742 464.646 399.813 464.646C401.881 464.646 401.881 464.646 403.262 464.993C404.64 465.337 405.331 463.957 406.71 465.684C408.089 467.408 409.124 468.442 410.158 470.167C411.192 471.891 413.607 471.891 413.952 474.651C414.297 477.41 414.987 477.068 414.987 479.48C414.987 481.896 416.366 482.93 417.402 483.621C418.434 484.31 422.229 487.758 422.229 487.758L427.402 488.794L431.541 491.899L435.908 493.278L436.029 493.274Z" fill="white"/>
<path d="M546.577 172.806L567.272 170.219C567.272 170.219 574.514 170.219 578.137 167.632C581.758 165.045 578.137 165.045 589.001 162.976C599.866 160.906 596.763 159.871 602.454 160.906C608.144 161.942 609.696 161.942 615.906 162.976C622.114 164.011 623.666 162.46 629.356 164.011C635.047 165.563 637.634 165.045 642.291 165.045H656.776C664.02 165.045 670.746 160.906 673.333 163.493C675.919 166.08 677.471 165.045 686.267 166.08C695.062 167.114 698.685 165.044 702.306 166.08C705.928 167.114 712.137 165.563 719.38 166.08C726.622 166.596 730.244 165.563 732.831 165.563C735.418 165.563 738.003 161.94 741.625 165.045C745.248 168.15 749.904 164.011 750.42 168.15C750.938 172.29 757.664 169.185 750.938 172.29C744.212 175.395 745.247 174.877 740.59 179.017C735.934 183.156 743.694 186.778 733.864 190.401C724.033 194.022 722.481 188.33 719.894 194.54C717.308 200.749 719.894 202.301 719.378 205.406C718.86 208.51 717.826 209.028 714.721 211.615C711.618 214.202 711.618 211.615 704.374 213.168C697.131 214.72 691.957 216.273 688.854 216.273C685.75 216.273 679.024 218.86 676.954 219.894C674.883 220.93 680.576 222.481 669.71 225.586C658.845 228.691 656.257 228.175 653.154 232.313C650.049 236.454 651.084 236.972 649.015 239.559C646.945 242.146 640.737 252.496 637.632 249.909C634.529 247.322 632.975 247.838 630.388 245.251C627.802 242.664 626.249 239.043 624.697 236.972C623.145 234.901 622.627 229.727 622.11 226.622C621.594 223.517 616.936 216.274 622.11 217.309C627.284 218.343 630.388 217.827 631.941 216.792C633.493 215.756 635.045 212.135 635.045 212.135C635.045 212.135 634.529 206.443 632.975 203.337C631.423 200.232 632.459 197.645 629.872 194.542C627.285 191.437 627.285 191.955 623.663 188.85C620.042 185.745 621.076 184.192 615.385 183.676C609.693 183.159 608.141 181.605 606.071 182.123C604.002 182.64 597.276 178.5 604.518 177.984C611.762 177.466 618.488 178.5 618.488 178.5C618.488 178.5 627.8 174.361 624.697 173.844C621.594 173.326 629.353 168.668 622.11 170.221C614.867 171.773 606.59 173.844 604.52 174.361C602.451 174.877 597.276 175.395 592.103 176.948C586.931 178.5 580.72 177.984 577.617 181.605C574.513 185.227 577.617 185.745 574.513 185.227C571.409 184.71 577.099 181.605 569.857 185.227C562.613 188.85 564.684 188.332 561.063 187.297C557.44 186.263 554.853 184.71 554.853 184.71C554.853 184.71 559.512 184.192 552.785 183.676C546.059 183.159 546.059 183.159 543.472 180.053C540.886 176.948 542.438 176.948 543.989 175.913C545.521 174.877 546.563 172.806 546.563 172.806H546.577Z" fill="white"/>
<path d="M535.191 196.091C532.604 198.678 526.395 202.301 527.949 203.854C529.501 205.406 530.536 211.099 533.64 209.546C536.743 207.994 533.122 202.819 545.021 206.959C556.922 211.099 555.886 206.443 558.473 212.651C561.06 218.86 563.128 223.516 561.576 225.07C560.025 226.622 559.507 228.175 554.332 229.727C549.159 231.28 547.089 233.35 550.711 235.936C554.332 238.523 561.06 241.11 564.163 242.664C567.267 244.215 576.58 244.735 571.923 239.561C567.266 234.386 572.957 232.832 572.957 232.832C572.957 232.832 581.753 239.561 578.65 231.798C575.545 224.037 573.475 224.037 575.545 224.037C577.616 224.037 581.753 226.624 581.753 226.624L583.823 222.484L581.753 215.758L575.027 209.031C575.027 209.031 580.717 203.857 572.957 202.823C565.197 201.788 565.713 201.788 561.574 199.199C557.435 196.612 556.919 195.578 549.157 197.13C541.397 198.683 538.811 199.717 538.811 199.717L535.21 196.091H535.191Z" fill="white"/>
<path d="M419.817 202.301C422.921 199.196 431.199 191.953 434.304 194.022C437.407 196.091 442.062 192.47 445.685 195.575C449.306 198.68 453.445 202.301 456.55 203.336C459.654 204.37 463.276 200.749 466.38 202.301C469.483 203.854 480.348 194.54 478.279 201.785C476.209 209.03 480.866 211.099 475.175 211.617C469.483 212.135 463.276 216.274 460.687 214.722C458.101 213.169 456.03 211.617 451.891 213.687C447.752 215.756 449.823 215.756 445.166 214.722C440.51 213.687 439.476 215.756 438.441 214.204C437.406 212.653 434.302 213.169 434.819 208.512C435.335 203.855 436.888 204.372 433.783 204.372C430.68 204.372 428.093 204.89 426.023 203.337C423.969 201.785 419.832 202.301 419.832 202.301H419.817Z" fill="white"/>
</svg>
